<?xml version="1.0" encoding="utf-8"?>
<!-- Generator: Adobe Illustrator 25.0.0, SVG Export Plug-In . SVG Version: 6.00 Build 0)  -->
<svg version="1.1" id="Layer_1" xmlns="http://www.w3.org/2000/svg" xmlns:xlink="http://www.w3.org/1999/xlink" x="0px" y="0px"
	 viewBox="0 0 200 200" style="enable-background:new 0 0 200 200;" xml:space="preserve">
<style type="text/css">
	.st0{fill-rule:evenodd;clip-rule:evenodd;fill:#FFFFFF;}
</style>
<path id="instagram" class="st0" d="M100,13.5c-23.5,0-26.4,0.1-35.7,0.5c-7.2,0.1-14.3,1.5-21,4C31.7,22.5,22.5,31.7,18,43.3
	c-2.5,6.7-3.9,13.8-4,21c-0.4,9.2-0.5,12.2-0.5,35.7s0.1,26.4,0.5,35.7c0.1,7.2,1.5,14.3,4,21c4.5,11.6,13.7,20.8,25.3,25.3
	c6.7,2.5,13.8,3.9,21,4c9.2,0.4,12.2,0.5,35.7,0.5s26.4-0.1,35.7-0.5c7.2-0.1,14.3-1.5,21-4c11.6-4.5,20.8-13.7,25.3-25.3
	c2.5-6.7,3.9-13.8,4-21c0.4-9.2,0.5-12.2,0.5-35.7s-0.1-26.4-0.5-35.7c-0.1-7.2-1.5-14.3-4-21c-4.5-11.6-13.7-20.8-25.3-25.3
	c-6.7-2.5-13.8-3.9-21-4C126.4,13.6,123.5,13.5,100,13.5 M100,29.1c23.1,0,25.9,0.1,35,0.5c5.5,0.1,10.9,1.1,16.1,3
	c7.5,2.9,13.5,8.9,16.4,16.4c1.9,5.1,2.9,10.6,3,16.1c0.4,9.1,0.5,11.8,0.5,35s-0.1,25.9-0.5,35c-0.1,5.5-1.1,10.9-3,16.1
	c-2.9,7.5-8.9,13.5-16.4,16.4c-5.1,1.9-10.6,2.9-16.1,3c-9.1,0.4-11.8,0.5-35,0.5s-25.9-0.1-35-0.5c-5.5-0.1-10.9-1.1-16.1-3
	c-7.5-2.9-13.5-8.9-16.4-16.4c-1.9-5.1-2.9-10.6-3-16.1c-0.4-9.1-0.5-11.8-0.5-35s0.1-25.9,0.5-35c0.1-5.5,1.1-10.9,3-16.1
	c2.9-7.5,8.9-13.5,16.4-16.4c5.1-1.9,10.6-2.9,16.1-3C74.1,29.2,76.8,29.1,100,29.1 M100,128.9c-15.9,0-28.8-12.9-28.8-28.8
	S84.1,71.2,100,71.2s28.8,12.9,28.8,28.8v0C128.8,116,115.9,128.9,100,128.9 M100,55.6c-24.5,0-44.4,19.9-44.4,44.4
	s19.9,44.4,44.4,44.4s44.4-19.9,44.4-44.4C144.4,75.5,124.5,55.6,100,55.6 M156.6,53.8c0,5.7-4.6,10.4-10.4,10.4
	c-5.7,0-10.4-4.6-10.4-10.4c0-5.7,4.6-10.4,10.4-10.4S156.6,48.1,156.6,53.8C156.6,53.8,156.6,53.8,156.6,53.8"/>
</svg>
