<?xml version="1.0" encoding="utf-8"?>
<!-- Generator: Adobe Illustrator 25.0.0, SVG Export Plug-In . SVG Version: 6.00 Build 0)  -->
<svg version="1.1" id="Layer_1" xmlns="http://www.w3.org/2000/svg" xmlns:xlink="http://www.w3.org/1999/xlink" x="0px" y="0px"
	 viewBox="0 0 200 200" style="enable-background:new 0 0 200 200;" xml:space="preserve">
<style type="text/css">
	.st0{fill-rule:evenodd;clip-rule:evenodd;fill:#FFFFFF;}
</style>
<path id="Path_8" class="st0" d="M12.6,99.6v0.7c0.1,20.5,7.3,40.3,20.6,56c7.5,8.8,16.6,16.1,26.8,21.4
	c42.9,22.1,95.6,5.2,117.7-37.8c18.2-35.4,10.2-78.7-19.5-105.2C122.3,2.6,67.1,5.7,34.9,41.6C20.6,57.6,12.7,78.2,12.6,99.6z
	 M167.4,124c9.2-25.8,2.8-54.6-16.4-74.1c-6.4,10.6-14.9,19.7-25.1,26.7c3.7,9.7,5.7,20,5.9,30.4C144.8,109.9,156.9,115.7,167.4,124
	L167.4,124z M130.5,123c11,2.8,21.2,8.2,29.7,15.7c-12.3,19.1-32.9,31.3-55.6,32.7c7.9-7.5,14.4-16.5,19-26.5
	C126.9,138,129.2,130.6,130.5,123L130.5,123z M115.9,104.9c-0.3-7-1.6-13.9-3.9-20.5c-26,11.7-56.1,10-80.6-4.7
	c-6.2,21.1-2.4,43.8,10.3,61.7C58.8,117.6,86.6,103.9,115.9,104.9z M52.7,153.6c13.5-21,37.1-33.5,62.1-32.8
	c-3.7,20.1-15.8,37.7-33.2,48.3C70.8,166.3,61,161,52.7,153.6L52.7,153.6z M100,28.5c13.7,0,27,3.9,38.5,11.2
	c-4.9,8.8-11.6,16.4-19.7,22.4c-8.4-13.6-20.3-24.6-34.5-31.9C89.5,29.1,94.7,28.5,100,28.5L100,28.5z M74.6,43.2
	c12.6,5.8,23.1,15.2,30.4,26.9c-18.9,8.4-40.4,8.1-59.1-0.6c-2.9-1.3-5.6-2.9-8.3-4.6c6-10.7,14.7-19.7,25.2-26
	C66.9,40,70.8,41.4,74.6,43.2L74.6,43.2z"/>
</svg>
