<svg id="Layer_1" data-name="Layer 1" xmlns="http://www.w3.org/2000/svg" viewBox="0 0 200 200"><defs><style>.cls-1{fill:none;stroke:#fff;stroke-miterlimit:10;stroke-width:5px;}</style></defs><g id="Component_11_2" data-name="Component 11 2"><path id="Path_227" data-name="Path 227" class="cls-1" d="M74,37a64.58,64.58,0,0,1,52.52,0"/><path id="Path_228" data-name="Path 228" class="cls-1" d="M61.46,56.42s42.28-35,77.31,3.72"/><path id="Path_229" data-name="Path 229" class="cls-1" d="M58,94.66S66.86,37,118.85,57.2"/><path id="Path_230" data-name="Path 230" class="cls-1" d="M142,94.66s-1.48-20-11.83-29.82"/><path id="Path_231" data-name="Path 231" class="cls-1" d="M60.57,121s9.15-11.27,8-23.31a37.42,37.42,0,0,1,5.46-22"/><path id="Path_232" data-name="Path 232" class="cls-1" d="M81.64,69.52s15.53-12.07,33.27-2.22,16.72,25.14,16.72,25.14-1.75,19.69,5.8,36.21"/><path id="Path_233" data-name="Path 233" class="cls-1" d="M65.52,132.57S77.45,118.7,79.67,92.44s29.86-16.76,29.86-16.76,14.68,4.5,11.79,29.67,10.19,32.16,10.19,32.16"/><path id="Path_234" data-name="Path 234" class="cls-1" d="M71.38,142.1a73.93,73.93,0,0,0,17.1-41.78c1.42-24.63,21-12.07,21-12.07s4.61,1,1.79,13.56S99.88,143.1,88.05,155"/><path id="Path_235" data-name="Path 235" class="cls-1" d="M78.49,150S102.54,121.32,100,92.45"/><path id="Path_236" data-name="Path 236" class="cls-1" d="M98.58,155.11s14.3-19.39,14.38-29.69,1.61,19.39,6.27,23"/></g></svg>