<?xml version="1.0" encoding="utf-8"?>
<!-- Generator: Adobe Illustrator 25.0.0, SVG Export Plug-In . SVG Version: 6.00 Build 0)  -->
<svg version="1.1" id="Layer_1" xmlns="http://www.w3.org/2000/svg" xmlns:xlink="http://www.w3.org/1999/xlink" x="0px" y="0px"
	 viewBox="0 0 200 200" style="enable-background:new 0 0 200 200;" xml:space="preserve">
<style type="text/css">
	.st0{fill:#FFFFFF;}
</style>
<path id="linkedin" class="st0" d="M62.3,166V77H32.7v89H62.3z M47.5,64.8c8.5,0.7,16-5.6,16.7-14.1c0.7-8.5-5.6-16-14.1-16.7
	c-0.8-0.1-1.6-0.1-2.4,0c-8.5-0.7-16,5.5-16.7,14s5.5,16,14,16.7c0.8,0.1,1.5,0.1,2.3,0H47.5L47.5,64.8z M78.7,166h29.6v-49.7
	c-0.1-2.4,0.2-4.9,1-7.2c2.3-6.4,8.3-10.8,15.2-10.8c10.7,0,15,8.2,15,20.1V166H169v-51c0-27.3-14.6-40.1-34.1-40.1
	c-11.1-0.5-21.5,5.3-26.9,15h0.2V77H78.7C79.1,85.3,78.7,166,78.7,166L78.7,166z"/>
</svg>
