<?xml version="1.0" encoding="utf-8"?>
<!-- Generator: Adobe Illustrator 25.0.0, SVG Export Plug-In . SVG Version: 6.00 Build 0)  -->
<svg version="1.1" id="Layer_1" xmlns="http://www.w3.org/2000/svg" xmlns:xlink="http://www.w3.org/1999/xlink" x="0px" y="0px"
	 viewBox="0 0 200 200" style="enable-background:new 0 0 200 200;" xml:space="preserve">
<style type="text/css">
	.st0{fill:#FFFFFF;}
	.st1{clip-path:url(#SVGID_2_);}
</style>
<g id="Group_154" transform="translate(-572.341 47.063) rotate(-22)">
	<g id="Group_153" transform="translate(528 221)">
		<path id="Path_129" class="st0" d="M51.3,20.3l-4.3,2l0,1.8l-3.1,1.4l0.5-10.6l3.3-1.5l8.3,6.7l-3.2,1.4L51.3,20.3z M49.5,18.7
			L47,16.6l0,3.2L49.5,18.7z"/>
		<g id="Group_152">
			<g>
				<defs>
					
						<rect id="SVGID_1_" x="3.2" y="7.4" transform="matrix(0.9272 -0.3746 0.3746 0.9272 -24.4468 34.124)" width="144.6" height="145"/>
				</defs>
				<clipPath id="SVGID_2_">
					<use xlink:href="#SVGID_1_"  style="overflow:visible;"/>
				</clipPath>
				<g id="Group_151" class="st1">
					<path id="Path_130" class="st0" d="M66.9,14.9c0.4,1.5-0.9,2.9-3.2,3.4L56.3,20l-2.1-9.3L61,9.2c2.3-0.5,4,0.1,4.4,1.5
						c0.2,1.2-0.5,2.3-1.7,2.5c0,0,0,0,0,0C65.2,13,66.6,13.5,66.9,14.9 M58.2,13.6l3.1-0.7c0.7-0.1,1.1-0.5,1-1s-0.6-0.7-1.3-0.5
						l-3.1,0.7L58.2,13.6z M63.5,15.3c-0.1-0.6-0.6-0.7-1.4-0.6l-3.5,0.8l0.4,1.7l3.5-0.8C63.2,16.2,63.6,15.9,63.5,15.3"/>
					<path id="Path_131" class="st0" d="M67.8,12.6c-0.1-3.2,2.4-5.1,6.2-5.2c3.8-0.1,6.4,1.7,6.4,4.9s-2.4,5.1-6.2,5.2
						C70.4,17.6,67.9,15.9,67.8,12.6 M77.1,12.4c0-1.6-1.2-2.4-3-2.4s-2.9,1-2.9,2.5s1.2,2.4,3,2.4S77.2,14,77.1,12.4"/>
					<path id="Path_132" class="st0" d="M94.3,10l-0.9,4.9c-0.5,2.9-2.9,4.3-6.4,3.7c-3.6-0.7-5.2-2.9-4.7-5.7l0.9-4.9l3.3,0.6
						l-0.9,4.7c-0.2,1.3,0.6,2.5,1.9,2.8c1.3,0.2,2.5-0.6,2.8-1.9c0,0,0,0,0,0l0.9-4.7L94.3,10z"/>
					<path id="Path_133" class="st0" d="M105.8,16.9l-3.5-1.4L99.7,22l-3.1-1.2l2.5-6.5L95.7,13l0.9-2.3l10.1,3.9L105.8,16.9z"/>
					<path id="Path_134" class="st0" d="M123,25.1l-5.5,7.7l-2.7-1.9l3.2-4.5l-5.3,1.4l-0.1-0.1l-0.3-5.4l-3.2,4.5l-2.6-1.9l5.5-7.7
						l2.9,2.1l0.2,5.2l5-1.5L123,25.1z"/>
					<path id="Path_135" class="st0" d="M127.3,40l-1.8,1.6l-7-7.7l7-6.4l6.9,7.6l-1.8,1.6l-4.7-5.2l-0.9,0.8l3.9,4.2l-1.6,1.5
						l-3.9-4.2l-1,0.9L127.3,40z"/>
					<path id="Path_136" class="st0" d="M131.1,43.2c1-0.8,2.5-0.6,3.2,0.5c0.8,1,0.5,2.5-0.5,3.2c-1,0.8-2.5,0.6-3.2-0.5
						c0-0.1-0.1-0.1-0.1-0.2C129.8,45.3,130.1,43.9,131.1,43.2C131.1,43.2,131.1,43.2,131.1,43.2"/>
					<path id="Path_137" class="st0" d="M136.9,51.1c3-1.1,5.6,0.7,6.9,4.2s0.4,6.6-2.6,7.7c-3,1.1-5.6-0.7-6.9-4.2
						S133.8,52.2,136.9,51.1 M140,59.8c1.5-0.5,1.9-1.9,1.3-3.6s-1.9-2.5-3.3-2c-1.5,0.5-1.9,1.9-1.3,3.6S138.6,60.4,140,59.8"/>
					<path id="Path_138" class="st0" d="M146.5,66.1l-5.9,3.7l6.7,1.7l0.5,3.5l-10.1-3l-0.5-3.4l8.7-5.9L146.5,66.1z"/>
					<path id="Path_139" class="st0" d="M140.5,87.3l-2.4-0.1l0.3-10.4l9.5,0.3l-0.3,10.3l-2.4-0.1l0.2-7l-1.2,0l-0.2,5.7l-2.2-0.1
						l0.2-5.7l-1.3,0L140.5,87.3z"/>
					<path id="Path_140" class="st0" d="M136.3,95.9l3.2-1.6l0.5-2.2l-2.7-0.6l0.7-3.2l9.3,2.1l-1.5,6.6c-0.5,2.5-2,4.2-4.3,3.7
						c-1.4-0.3-2.4-1.5-2.4-3l-3.6,1.9L136.3,95.9z M141.4,95.7c-0.2,0.8-0.1,1.5,0.7,1.7s1.2-0.4,1.3-1.2l0.7-3.1l-2.1-0.5
						L141.4,95.7z"/>
					<path id="Path_141" class="st0" d="M136.2,119.8l-8.4-4.5l1.5-2.9l4.9,2.6l-2.1-5l0.1-0.1l5.4-1l-4.9-2.6l1.5-2.8l8.4,4.5
						l-1.7,3.2l-5.1,0.9l2.1,4.8L136.2,119.8z"/>
					
						<rect id="Rectangle_144" x="127.7" y="115.9" transform="matrix(-0.6034 0.7974 -0.7974 -0.6034 303.637 90.2653)" class="st0" width="3.3" height="9.5"/>
					<path id="Path_142" class="st0" d="M123.1,124.4c-1,1.1-0.7,2,0.2,3l3.6,3.4l-2.3,2.4l-3.8-3.6c-2-1.9-2-4.5,0.3-6.9
						c1.1-1.3,2.7-2,4.3-1.9l-0.1,2.9C124.5,123.4,123.6,123.7,123.1,124.4"/>
					<path id="Path_143" class="st0" d="M116.5,132.6c0.8,1,0.7,2.4-0.2,3.3c-1,0.8-2.4,0.7-3.3-0.2c-0.8-1-0.7-2.4,0.2-3.3
						c0.1,0,0.1-0.1,0.2-0.1C114.3,131.4,115.6,131.6,116.5,132.6C116.4,132.5,116.4,132.5,116.5,132.6"/>
					<path id="Path_144" class="st0" d="M100.5,139.3l4.3-2l0-1.8l3.1-1.5l-0.4,10.6l-3.3,1.5l-8.4-6.6l3.2-1.5L100.5,139.3z
						 M102.3,140.9l2.5,2.1l0-3.2L102.3,140.9z"/>
					<path id="Path_145" class="st0" d="M85,144.9c-0.4-1.5,0.9-2.9,3.2-3.4l7.4-1.8l2.2,9.2l-6.8,1.6c-2.3,0.6-4,0-4.4-1.5
						c-0.2-1.2,0.5-2.3,1.7-2.6c0,0,0,0,0,0C86.7,146.8,85.3,146.3,85,144.9 M88.4,144.5c0.1,0.6,0.6,0.7,1.4,0.5l3.5-0.8l-0.4-1.7
						l-3.5,0.8C88.6,143.5,88.2,143.9,88.4,144.5 M93.7,146.1l-3.1,0.8c-0.7,0.2-1.1,0.5-0.9,1s0.7,0.7,1.3,0.5l3.1-0.8L93.7,146.1z
						"/>
					<path id="Path_146" class="st0" d="M84.1,147.2c0.1,3.2-2.4,5.1-6.1,5.3c-3.8,0.1-6.4-1.6-6.5-4.8s2.4-5.1,6.2-5.3
						S84,144,84.1,147.2 M74.8,147.5c0,1.6,1.2,2.4,3,2.4c1.8-0.1,2.9-1,2.9-2.6s-1.2-2.4-3-2.4S74.7,145.9,74.8,147.5"/>
					<path id="Path_147" class="st0" d="M57.6,150.2l0.9-4.9c0.5-2.9,2.8-4.4,6.4-3.8s5.3,2.8,4.8,5.7l-0.9,4.9l-3.3-0.6l0.8-4.7
						c0.3-1.3-0.6-2.5-1.8-2.8c-1.3-0.3-2.5,0.6-2.8,1.8c0,0.1,0,0.1,0,0.2l-0.8,4.7L57.6,150.2z"/>
					<path id="Path_148" class="st0" d="M46.1,143.4l3.5,1.3l2.4-6.5l3.1,1.2l-2.4,6.5l3.5,1.3l-0.9,2.3l-10.1-3.8L46.1,143.4z"/>
					<path id="Path_149" class="st0" d="M28.8,135.4l5.4-7.8l2.7,1.9l-3.2,4.6l5.2-1.5l0.1,0.1l0.4,5.4l3.2-4.6l2.6,1.8l-5.4,7.8
						l-3-2.1l-0.2-5.2l-5,1.6L28.8,135.4z"/>
					<path id="Path_150" class="st0" d="M24.3,120.5l1.7-1.6l7.1,7.6l-6.9,6.5l-7-7.5l1.7-1.6l4.8,5.1l0.9-0.8l-3.9-4.2l1.6-1.5
						l3.9,4.2l1-0.9L24.3,120.5z"/>
					<path id="Path_151" class="st0" d="M20.4,117.4c-1,0.8-2.5,0.6-3.3-0.4c-0.8-1-0.6-2.5,0.4-3.3c1-0.8,2.5-0.6,3.3,0.4
						c0,0.1,0.1,0.1,0.1,0.2C21.7,115.3,21.5,116.7,20.4,117.4C20.5,117.4,20.4,117.4,20.4,117.4"/>
					<path id="Path_152" class="st0" d="M14.6,109.6c-3,1.1-5.6-0.6-6.9-4.1s-0.5-6.6,2.5-7.7s5.6,0.6,7,4.2
						C18.4,105.4,17.6,108.4,14.6,109.6 M11.3,100.9c-1.5,0.5-1.9,1.9-1.3,3.6c0.6,1.7,1.9,2.5,3.4,1.9s1.9-1.9,1.3-3.6
						S12.8,100.3,11.3,100.9"/>
					<path id="Path_153" class="st0" d="M4.8,94.7l5.8-3.8l-6.7-1.6l-0.6-3.4l10.1,2.9l0.6,3.4l-8.6,6L4.8,94.7z"/>
					<path id="Path_154" class="st0" d="M10.5,73.4l2.4,0l-0.2,10.4l-9.5-0.2l0.2-10.3l2.4,0l-0.1,7l1.2,0L7,74.8l2.2,0l-0.1,5.7
						l1.3,0L10.5,73.4z"/>
					<path id="Path_155" class="st0" d="M14.6,64.7l-3.2,1.7L11,68.6l2.7,0.6L13,72.4l-9.3-1.9l1.4-6.6c0.5-2.5,2-4.2,4.2-3.8
						c1.4,0.3,2.4,1.5,2.5,2.9l3.6-2L14.6,64.7z M9.4,65c0.2-0.8,0.1-1.5-0.7-1.6s-1.2,0.4-1.3,1.2l-0.7,3.1l2.1,0.4L9.4,65z"/>
					<path id="Path_156" class="st0" d="M14.4,40.9l8.4,4.4l-1.5,2.9l-4.9-2.6l2.2,5l-0.1,0.1l-5.3,1.1l4.9,2.6l-1.5,2.8l-8.4-4.4
						l1.7-3.2l5.1-0.9L12.8,44L14.4,40.9z"/>
					
						<rect id="Rectangle_145" x="19.5" y="35.2" transform="matrix(-0.5934 0.8049 -0.8049 -0.5934 65.9171 46.5891)" class="st0" width="3.3" height="9.5"/>
					<path id="Path_157" class="st0" d="M27.5,36.1c1-1.1,0.7-2.1-0.2-3l-3.6-3.4l2.3-2.4l3.8,3.6c2,1.9,2.1,4.5-0.3,6.9
						c-1.1,1.3-2.7,2-4.3,2l0.1-2.9C26,37.1,26.9,36.8,27.5,36.1"/>
					<path id="Path_158" class="st0" d="M34,27.9c-0.9-1-0.8-2.4,0.2-3.3c1-0.9,2.4-0.8,3.3,0.2s0.8,2.4-0.2,3.3
						c0,0-0.1,0.1-0.2,0.1C36.2,28.9,34.8,28.8,34,27.9C34,27.9,34,27.9,34,27.9"/>
					
						<rect id="Rectangle_146" x="59.4" y="97.9" transform="matrix(-1 2.195350e-06 -2.195350e-06 -1 124.131 201.2305)" class="st0" width="5.4" height="5.4"/>
					
						<rect id="Rectangle_147" x="64.7" y="97.9" transform="matrix(-1 2.195349e-06 -2.195349e-06 -1 134.839 201.2305)" class="st0" width="5.4" height="5.4"/>
					
						<rect id="Rectangle_148" x="70.1" y="97.9" transform="matrix(-1 2.195349e-06 -2.195349e-06 -1 145.545 201.2304)" class="st0" width="5.4" height="5.4"/>
					
						<rect id="Rectangle_149" x="54" y="97.9" transform="matrix(-1 2.195349e-06 -2.195349e-06 -1 113.425 201.2305)" class="st0" width="5.4" height="5.4"/>
					
						<rect id="Rectangle_150" x="48.7" y="97.9" transform="matrix(-1 2.195350e-06 -2.195350e-06 -1 102.717 201.2305)" class="st0" width="5.4" height="5.4"/>
					
						<rect id="Rectangle_151" x="48.7" y="92.6" transform="matrix(-1 2.195350e-06 -2.195350e-06 -1 102.717 190.5245)" class="st0" width="5.4" height="5.4"/>
					
						<rect id="Rectangle_152" x="43.3" y="92.6" transform="matrix(-1 2.195350e-06 -2.195350e-06 -1 92.011 190.5245)" class="st0" width="5.4" height="5.4"/>
					
						<rect id="Rectangle_153" x="43.3" y="87.2" transform="matrix(-1 2.195350e-06 -2.195350e-06 -1 92.011 179.8165)" class="st0" width="5.4" height="5.4"/>
					
						<rect id="Rectangle_154" x="43.3" y="81.9" transform="matrix(-1 2.195350e-06 -2.195350e-06 -1 92.011 169.1105)" class="st0" width="5.4" height="5.4"/>
					
						<rect id="Rectangle_155" x="75.4" y="92.6" transform="matrix(-1 2.195349e-06 -2.195349e-06 -1 156.251 190.5244)" class="st0" width="5.4" height="5.4"/>
					
						<rect id="Rectangle_156" x="70.1" y="92.6" transform="matrix(-1 2.195349e-06 -2.195349e-06 -1 145.545 190.5245)" class="st0" width="5.4" height="5.4"/>
					
						<rect id="Rectangle_157" x="75.4" y="87.2" transform="matrix(-1 2.195349e-06 -2.195349e-06 -1 156.251 179.8164)" class="st0" width="5.4" height="5.4"/>
					
						<rect id="Rectangle_158" x="75.4" y="81.9" transform="matrix(-1 2.195349e-06 -2.195349e-06 -1 156.251 169.1104)" class="st0" width="5.4" height="5.4"/>
					
						<rect id="Rectangle_159" x="80.8" y="81.9" transform="matrix(-1 2.195350e-06 -2.195350e-06 -1 166.959 169.1104)" class="st0" width="5.4" height="5.4"/>
					
						<rect id="Rectangle_160" x="102.2" y="97.9" transform="matrix(-1 2.195350e-06 -2.195350e-06 -1 209.787 201.2304)" class="st0" width="5.4" height="5.4"/>
					
						<rect id="Rectangle_161" x="107.6" y="97.9" transform="matrix(-1 2.195349e-06 -2.195349e-06 -1 220.493 201.2304)" class="st0" width="5.4" height="5.4"/>
					
						<rect id="Rectangle_162" x="112.9" y="97.9" transform="matrix(-1 2.195349e-06 -2.195349e-06 -1 231.201 201.2304)" class="st0" width="5.4" height="5.4"/>
					
						<rect id="Rectangle_163" x="96.9" y="97.9" transform="matrix(-1 2.195350e-06 -2.195350e-06 -1 199.079 201.2304)" class="st0" width="5.4" height="5.4"/>
					
						<rect id="Rectangle_164" x="91.5" y="97.9" transform="matrix(-1 2.195350e-06 -2.195350e-06 -1 188.373 201.2304)" class="st0" width="5.4" height="5.4"/>
					
						<rect id="Rectangle_165" x="59.4" y="77.4" transform="matrix(-1 2.195350e-06 -2.195350e-06 -1 124.131 160.0765)" class="st0" width="5.4" height="5.4"/>
					
						<rect id="Rectangle_166" x="64.7" y="77.4" transform="matrix(-1 2.195350e-06 -2.195350e-06 -1 134.839 160.0765)" class="st0" width="5.4" height="5.4"/>
					
						<rect id="Rectangle_167" x="70.1" y="77.4" transform="matrix(-1 2.195350e-06 -2.195350e-06 -1 145.545 160.0765)" class="st0" width="5.4" height="5.4"/>
					
						<rect id="Rectangle_168" x="54" y="77.4" transform="matrix(-1 2.195349e-06 -2.195349e-06 -1 113.425 160.0765)" class="st0" width="5.4" height="5.4"/>
					
						<rect id="Rectangle_169" x="48.7" y="77.4" transform="matrix(-1 2.195350e-06 -2.195350e-06 -1 102.717 160.0765)" class="st0" width="5.4" height="5.4"/>
					
						<rect id="Rectangle_170" x="38" y="72" transform="matrix(-1 2.195349e-06 -2.195349e-06 -1 81.303 149.3685)" class="st0" width="5.4" height="5.4"/>
					
						<rect id="Rectangle_171" x="38" y="77.4" transform="matrix(-1 2.195349e-06 -2.195349e-06 -1 81.303 160.0765)" class="st0" width="5.4" height="5.4"/>
					
						<rect id="Rectangle_172" x="43.3" y="77.4" transform="matrix(-1 2.195350e-06 -2.195350e-06 -1 92.011 160.0765)" class="st0" width="5.4" height="5.4"/>
					
						<rect id="Rectangle_173" x="32.6" y="72" transform="matrix(-1 2.195350e-06 -2.195350e-06 -1 70.597 149.3685)" class="st0" width="5.4" height="5.4"/>
					
						<rect id="Rectangle_174" x="32.6" y="66.7" transform="matrix(-1 2.195350e-06 -2.195350e-06 -1 70.597 138.6625)" class="st0" width="5.4" height="5.4"/>
					
						<rect id="Rectangle_175" x="32.6" y="61.3" transform="matrix(-1 2.195350e-06 -2.195350e-06 -1 70.597 127.9545)" class="st0" width="5.4" height="5.4"/>
					
						<rect id="Rectangle_176" x="27.3" y="61.3" transform="matrix(-1 2.195350e-06 -2.195350e-06 -1 59.889 127.9545)" class="st0" width="5.4" height="5.4"/>
					
						<rect id="Rectangle_177" x="27.3" y="55.9" transform="matrix(-1 2.195350e-06 -2.195350e-06 -1 59.889 117.2485)" class="st0" width="5.4" height="5.4"/>
					
						<rect id="Rectangle_178" x="118.3" y="72" transform="matrix(-1 2.195350e-06 -2.195350e-06 -1 241.907 149.3684)" class="st0" width="5.4" height="5.4"/>
					
						<rect id="Rectangle_179" x="118.3" y="77.4" transform="matrix(-1 2.195350e-06 -2.195350e-06 -1 241.907 160.0764)" class="st0" width="5.4" height="5.4"/>
					
						<rect id="Rectangle_180" x="112.9" y="72" transform="matrix(-1 2.195350e-06 -2.195350e-06 -1 231.2009 149.3684)" class="st0" width="5.4" height="5.4"/>
					
						<rect id="Rectangle_181" x="112.9" y="66.7" transform="matrix(-1 2.195350e-06 -2.195350e-06 -1 231.2009 138.6624)" class="st0" width="5.4" height="5.4"/>
					
						<rect id="Rectangle_182" x="112.9" y="61.3" transform="matrix(-1 2.195350e-06 -2.195350e-06 -1 231.2009 127.9544)" class="st0" width="5.4" height="5.4"/>
					
						<rect id="Rectangle_183" x="107.6" y="61.3" transform="matrix(-1 2.195350e-06 -2.195350e-06 -1 220.4929 127.9544)" class="st0" width="5.4" height="5.4"/>
					
						<rect id="Rectangle_184" x="107.6" y="55.9" transform="matrix(-1 2.195350e-06 -2.195350e-06 -1 220.4929 117.2484)" class="st0" width="5.4" height="5.4"/>
					
						<rect id="Rectangle_185" x="102.2" y="77.4" transform="matrix(-1 2.195350e-06 -2.195350e-06 -1 209.787 160.0764)" class="st0" width="5.4" height="5.4"/>
					
						<rect id="Rectangle_186" x="107.6" y="77.4" transform="matrix(-1 2.195350e-06 -2.195350e-06 -1 220.493 160.0764)" class="st0" width="5.4" height="5.4"/>
					
						<rect id="Rectangle_187" x="112.9" y="77.4" transform="matrix(-1 2.195350e-06 -2.195350e-06 -1 231.2009 160.0764)" class="st0" width="5.4" height="5.4"/>
					
						<rect id="Rectangle_188" x="96.9" y="77.4" transform="matrix(-1 2.195350e-06 -2.195350e-06 -1 199.079 160.0764)" class="st0" width="5.4" height="5.4"/>
					
						<rect id="Rectangle_189" x="91.5" y="77.4" transform="matrix(-1 2.195350e-06 -2.195350e-06 -1 188.373 160.0764)" class="st0" width="5.4" height="5.4"/>
					
						<rect id="Rectangle_190" x="91.5" y="92.6" transform="matrix(-1 2.195350e-06 -2.195350e-06 -1 188.373 190.5244)" class="st0" width="5.4" height="5.4"/>
					
						<rect id="Rectangle_191" x="86.2" y="92.6" transform="matrix(-1 2.195350e-06 -2.195350e-06 -1 177.665 190.5244)" class="st0" width="5.4" height="5.4"/>
					
						<rect id="Rectangle_192" x="86.2" y="87.2" transform="matrix(-1 2.195350e-06 -2.195350e-06 -1 177.665 179.8164)" class="st0" width="5.4" height="5.4"/>
					
						<rect id="Rectangle_193" x="86.2" y="81.9" transform="matrix(-1 2.195350e-06 -2.195350e-06 -1 177.665 169.1104)" class="st0" width="5.4" height="5.4"/>
					
						<rect id="Rectangle_194" x="118.3" y="92.6" transform="matrix(-1 2.195350e-06 -2.195350e-06 -1 241.907 190.5244)" class="st0" width="5.4" height="5.4"/>
					
						<rect id="Rectangle_195" x="112.9" y="92.6" transform="matrix(-1 2.195350e-06 -2.195350e-06 -1 231.201 190.5244)" class="st0" width="5.4" height="5.4"/>
					
						<rect id="Rectangle_196" x="118.3" y="87.2" transform="matrix(-1 2.195350e-06 -2.195350e-06 -1 241.907 179.8164)" class="st0" width="5.4" height="5.4"/>
					
						<rect id="Rectangle_197" x="118.3" y="81.9" transform="matrix(-1 2.195350e-06 -2.195350e-06 -1 241.907 169.1104)" class="st0" width="5.4" height="5.4"/>
				</g>
			</g>
		</g>
	</g>
</g>
</svg>
