<svg id="Layer_1" data-name="Layer 1" xmlns="http://www.w3.org/2000/svg" viewBox="0 0 800 800"><g id="Group_155" data-name="Group 155"><path id="Path_162" data-name="Path 162" d="M610.38,227.65l79-83.64L607.3,91.45,461.87,116.83l-94.66,178.1,32.47,200.32-32.46,54.1,103.49-33.72,30.74-58.2V210.29l23.09-50.57,36.35-6.51,45,40Z"/><path id="Path_163" data-name="Path 163" d="M180.43,193.51l25.9-79.33,61.25-40.07L361.79,91H436l-53.62,83.22-102.71,4.89-63.53-26.37Z"/><path id="Path_164" data-name="Path 164" d="M371.26,198.39l-46.1,100.26,19,201.12-32.57,71.82-79.13,24.72,28.62-45.87V439.62l-28.64-11.9-20.83,33.07-48-41.51L178.89,365l76.44-24.18V266Z"/><path id="Path_165" data-name="Path 165" d="M208.28,718.92l66.07-89.84,167.24-59.56,180.87,46.66,39.41-14.25-85,124L441.59,678.36H334.49Z"/></g></svg>